<svg xmlns="http://www.w3.org/2000/svg" viewBox="0 0 1000 1200" class="cf-icon-svg" height="19"><path d="M500 105.24c-276.14 0-500 223.86-500 500s223.86 500 500 500 500-223.86 500-500-223.86-500-500-500zM259.27 877.65a25 25 0 11-50 0V345.74a25 25 0 1150 0zM768.44 635c0 12-5.94 26.73-13.2 32.76l-6.34 4.77c-41.64 31.37-75.84 42.82-106 42.88-80.27.16-132-80.25-219.17-80.26-26 0-55.21 7.16-89.25 25.76l-7.79 4.26c-9 5.7-16.37.55-16.37-11.44V392.21c0-12 4.58-24.75 10.19-28.36l4.94-2.92q7.41-4.38 14.52-8.06c29.47-15.27 55.25-21.88 78.5-22.74 90.05-3.31 142.15 79.7 223.47 80.19 29.32.17 62.44-10.38 102.51-39.58l7.73-5.64c8.95-7.38 16.26-3.6 16.26 8.39z"/></svg>