<svg xmlns="http://www.w3.org/2000/svg" viewBox="0 0 761.07 1200" class="cf-icon-svg" height="19"><path d="M761.07 611.79c0 16.27-8.05 36.29-17.89 44.49l-8.59 6.49C678.16 705.41 631.8 721 590.92 721c-108.79.22-178.87-109.09-297-109.1-35.27 0-74.82 9.73-121 35l-10.56 5.79c-12.2 7.75-22.18.77-22.18-15.51V281.62c0-16.27 6.21-33.6 13.8-38.51l6.69-4q10-6 19.68-11c39.94-20.76 74.88-29.74 106.4-30.9 122.05-4.5 192.66 108.34 302.87 109 39.74.24 84.63-14.11 138.94-53.81l10.44-7.58c12.12-10 22-4.92 22 11.36zM70 956.16V218.5a35 35 0 00-70 0v737.66a35 35 0 0070 0z"/></svg>