<svg xmlns="http://www.w3.org/2000/svg" viewBox="0 0 890 1200" class="cf-icon-svg" height="19"><path d="M855 356.64H742c-15.58-60.41-70.54-105.17-135.74-105.17s-120.15 44.76-135.73 105.17H35a35 35 0 000 70h435.53C486.11 487 541.06 531.8 606.27 531.8S726.43 487 742 426.64h113a35 35 0 000-70zM606.27 461.8a70.17 70.17 0 1170.17-70.17 70.25 70.25 0 01-70.17 70.17zM855 590.34H412.61C397 529.93 342.08 485.17 276.87 485.17s-120.16 44.76-135.74 105.17H35a35 35 0 000 70h106.13c15.58 60.41 70.54 105.17 135.74 105.17S397 720.75 412.61 660.34H855a35 35 0 000-70zM276.87 695.51A70.17 70.17 0 11347 625.34a70.25 70.25 0 01-70.13 70.17zM855 824H742c-15.58-60.41-70.54-105.17-135.74-105.17S486.11 763.63 470.53 824H35a35 35 0 000 70h435.53c15.58 60.41 70.53 105.17 135.74 105.17S726.43 954.45 742 894h113a35 35 0 000-70zM606.27 929.21A70.17 70.17 0 11676.44 859a70.25 70.25 0 01-70.17 70.21z"/></svg>