<svg xmlns="http://www.w3.org/2000/svg" viewBox="0 0 1000 1200" class="cf-icon-svg" height="19"><path d="M692.15 439.45a49.74 49.74 0 11-49.74-49.74 49.8 49.8 0 0149.74 49.74zm-49.74 282.44a49.74 49.74 0 1049.74 49.74 49.8 49.8 0 00-49.74-49.74zM360.78 555.8a49.74 49.74 0 1049.74 49.74 49.8 49.8 0 00-49.74-49.74zM1000 605.24c0 276.14-223.86 500-500 500S0 881.38 0 605.24s223.86-500 500-500 500 223.86 500 500zM818 771.63a25 25 0 00-25-25h-54a99.75 99.75 0 00-193.14 0H210.21a25 25 0 000 50h335.63a99.75 99.75 0 00193.14 0h54a25 25 0 0025.02-25zm0-166.09a25 25 0 00-25-25H457.34a99.75 99.75 0 00-193.13 0h-54a25 25 0 000 50h54a99.75 99.75 0 00193.13 0H793a25 25 0 0025-25zm0-166.09a25 25 0 00-25-25h-54a99.75 99.75 0 00-193.14 0H210.21a25 25 0 000 50h335.63a99.76 99.76 0 00193.14 0h54a25 25 0 0025.02-25z"/></svg>