<svg xmlns="http://www.w3.org/2000/svg" viewBox="0 0 1000 1200" class="cf-icon-svg" height="19"><path d="M373.77 442.56h380.44v245.58H373.77zm-50 275.57V574.84h-77.06v245.57h380.43v-82.27H343.77a20.06 20.06 0 01-20-20zM1000 605.24c0 276.14-223.86 500-500 500S0 881.38 0 605.24s223.86-500 500-500 500 223.86 500 500zM804.21 356.59a20.06 20.06 0 00-20-20H343.77a20.06 20.06 0 00-20 20v112.27H216.71a20.06 20.06 0 00-20 20v361.55a20.06 20.06 0 0020 20h440.43a20.06 20.06 0 0020-20V738.14h107.07a20.06 20.06 0 0020-20z"/></svg>