<svg xmlns="http://www.w3.org/2000/svg" viewBox="0 0 1200 1200" class="cf-icon-svg"><path d="M1015.41,497.33H976.91a344.17,344.17,0,0,0-78.54-131.26A322.14,322.14,0,0,1,933.16,182a19.13,19.13,0,0,0,2-6.43,18.68,18.68,0,0,0-16.27-20.86,18.3,18.3,0,0,0-11.69,2.38L718.77,266.73a344.09,344.09,0,0,0-69.52-7.11H504.62A344.61,344.61,0,0,0,166.5,537.47a66.92,66.92,0,0,0,0,133.7A344.77,344.77,0,0,0,260.88,848q8.74,8.74,18,16.76v145.52a35.22,35.22,0,0,0,35.17,35.12H422a35.21,35.21,0,0,0,35.16-35.12V945.68A340.48,340.48,0,0,0,504.62,949H649.24a340.53,340.53,0,0,0,47.48-3.35v64.66a35.22,35.22,0,0,0,35.17,35.12H839.82A35.21,35.21,0,0,0,875,1010.33V864.81q9.31-8,18-16.76A344,344,0,0,0,976.91,711.3h38.51c45.1,0,82-36.94,82-82.08V579.37A82.29,82.29,0,0,0,1015.41,497.33ZM487.82,319.89H678.63a35.16,35.16,0,1,1,0,70.32H487.82a35.16,35.16,0,1,1,0-70.32Zm260.12,233.6-146,252.9a39.36,39.36,0,0,1-30.76,19.53c-1.05.1-2.2.15-3.34.15a39.29,39.29,0,0,1-30.26-14.17l-81.66-98a39.37,39.37,0,0,1,60.5-50.39L562,718.14l117.77-204a39.37,39.37,0,0,1,68.2,39.35Z"/></svg>
