<svg xmlns="http://www.w3.org/2000/svg" viewBox="0 0 1200 1200" class="cf-icon-svg"><path d="M600.48,100C324.34,99.74,100.26,323.38,100,599.52S323.38,1099.74,599.52,1100,1099.74,876.62,1100,600.48,876.62,100.26,600.48,100ZM939.3,374.39,878.74,606a24,24,0,0,1-41.25,5.53l-45.51-59-13.73-17.8-128.2,98.18-.28,296a49.94,49.94,0,1,1-99.89,0L550.16,633,421.75,534.69,408,552.49l-45.51,59A24,24,0,0,1,321.26,606L260.7,374.4c-6.46-15.71,5-32.52,21.12-33.24H525.5a24,24,0,0,1,15.84,38.48l-51.08,66.23L483,455.32l117,89.62,117-89.63-7.29-9.45-51.08-66.23a24,24,0,0,1,15.84-38.48H918.18C934.28,341.87,945.77,358.68,939.3,374.39Z"/></svg>
