<svg xmlns="http://www.w3.org/2000/svg" viewBox="0 0 1200 1200" class="cf-icon-svg"><path d="M1012.64,186.49h-316a31.15,31.15,0,0,0-20.54,49.9l66.24,85.89,9.45,12.25L600,450.78,448.23,334.55l9.45-12.25,66.24-85.89a31.15,31.15,0,0,0-20.54-49.9h-316c-20.88.94-35.77,22.74-27.39,43.11l78.54,300.32A31.16,31.16,0,0,0,292,537.1l59-76.53,17.8-23.08L535.37,565,535,948.74a64.77,64.77,0,1,0,129.54,0l.37-383.93L831.17,437.49,849,460.57l59,76.53a31.16,31.16,0,0,0,53.5-7.18L1040,229.6C1048.42,209.23,1033.53,187.43,1012.64,186.49Z" /></svg>
